<svg width="58" height="49" viewBox="0 0 58 49" fill="none" xmlns="http://www.w3.org/2000/svg">
<path d="M56.6662 10.5954C55.9274 8.76938 54.4125 7.42975 52.5097 6.9199L51.7042 6.70406L51.828 6.24186C52.0332 5.47609 51.5787 4.68892 50.813 4.48373C50.0472 4.27855 49.26 4.73302 49.0548 5.49879L48.0641 9.19637C47.8589 9.96214 48.3134 10.7493 49.0791 10.9545C49.8449 11.1597 50.6321 10.7052 50.8373 9.93944L50.9611 9.47725L51.7666 9.69308C52.7911 9.9676 53.6069 10.689 54.0047 11.6722C54.4025 12.6554 54.3179 13.7411 53.7724 14.6508L46.6408 26.5454C44.6507 29.8648 40.6498 31.4833 36.9115 30.4817C33.1731 29.48 30.5176 26.0777 30.4538 22.2081L30.225 8.34123C30.2075 7.28068 30.6771 6.29813 31.5132 5.64553C32.3493 4.99284 33.4165 4.77608 34.441 5.05059L35.2464 5.26641L35.1226 5.72861C34.9174 6.49438 35.3718 7.28155 36.1376 7.48673C36.9034 7.69192 37.6906 7.23745 37.8957 6.47168L38.8865 2.7741C39.0917 2.00833 38.6372 1.22116 37.8715 1.01597C37.1057 0.810782 36.3185 1.26526 36.1133 2.03103L35.9895 2.49322L35.1841 2.27741C33.2814 1.76759 31.2994 2.17032 29.7466 3.38228C28.1937 4.5943 27.3219 6.41899 27.3544 8.38853L27.5832 22.2553C27.6251 24.793 28.4727 27.1918 30.0342 29.1925C30.3689 29.6214 30.7308 30.021 31.1147 30.3935L32.6011 41.0223L32.3329 42.023C31.6073 44.731 28.8139 46.3438 26.1059 45.6182C23.3979 44.8926 21.7851 42.0992 22.5107 39.3912L25.0587 29.8817C26.2333 25.4982 23.6226 20.9763 19.2391 19.8018C14.8556 18.6272 10.3337 21.2379 9.15915 25.6214L8.27962 28.9039C4.94634 28.7011 1.81008 30.863 0.912945 34.2112C-0.111381 38.034 2.16539 41.9775 5.98823 43.0018C9.81106 44.0262 13.7545 41.7494 14.7789 37.9266C15.676 34.5785 14.0409 31.1381 11.0528 29.6469L11.9323 26.3645C12.6972 23.5102 15.6417 21.8101 18.496 22.575C21.3504 23.3398 23.0504 26.2843 22.2856 29.1386L19.7375 38.6481C18.6022 42.8852 21.1257 47.2561 25.3628 48.3914C29.6 49.5267 33.9708 47.0032 35.1061 42.7661L35.3743 41.7653L41.976 33.3038C42.4947 33.1731 43.0079 33.008 43.5121 32.8039C45.8648 31.8521 47.7982 30.1984 49.1033 28.0216L56.2349 16.127C57.2478 14.4377 57.405 12.4214 56.6662 10.5954ZM12.0057 37.1835C11.3911 39.4772 9.025 40.8432 6.7313 40.2286C4.4376 39.6141 3.07153 37.248 3.68613 34.9543C4.30073 32.6606 6.66682 31.2945 8.96052 31.9091C11.2542 32.5237 12.6203 34.8898 12.0057 37.1835ZM35.0155 37.5578L34.3206 32.5889C34.9116 32.8597 35.5285 33.0834 36.1686 33.2549C36.8087 33.4264 37.4547 33.5411 38.1019 33.6021L35.0155 37.5578Z" fill="#C7183A"/>
</svg>
